<svg width="1471" height="347" viewBox="0 0 1471 347" fill="none" xmlns="http://www.w3.org/2000/svg">
<path fill-rule="evenodd" clip-rule="evenodd" d="M539.987 117.356L540.324 234.606L542.06 244.606L543.796 254.606L545.348 260.606L546.9 266.606L548.951 272.606L551.003 278.606L555.251 287.106L559.5 295.606L564.259 302.106L569.018 308.606L573.982 313.408L578.946 318.21L584.196 322.089L589.447 325.967L598.334 330.486L607.22 335.005L614.72 337.491L622.22 339.977L632.239 342.013L642.257 344.05L654.739 345.207L667.22 346.364L684.22 345.772L701.22 345.18L712.141 343.621L723.062 342.061L730.996 340.036L738.93 338.01L745.575 335.509L752.22 333.009L759.682 328.984L767.144 324.96L773.541 319.783L779.939 314.606L785.632 307.542L791.326 300.478L795.919 291.542L800.513 282.606L803.093 274.379L805.673 266.153L807.649 256.379L809.625 246.606L810.662 234.606L811.699 222.606L811.71 111.356L811.72 0.106018H776.72H741.72L741.711 1.35602L741.702 2.60602L741.72 104.702L741.738 206.798L740.701 221.402L739.664 236.006L737.686 243.806L735.708 251.606L732.645 257.868L729.583 264.13L724.489 269.145L719.394 274.159L713.307 277.052L707.22 279.944L700.72 281.771L694.22 283.598L675.72 283.557L657.22 283.515L649.885 280.881L642.55 278.247L637.018 274.927L631.486 271.606L626.69 266.254L621.894 260.902L618.874 254.754L615.854 248.606L613.551 241.106L611.247 233.606L610.959 116.856L610.672 0.106018H575.161H539.65L539.987 117.356ZM880.224 1.80304L880.567 3.60602L880.643 170.356L880.72 337.106H915.72H950.72V277.106V217.106L986.97 217.077L1023.22 217.048L1035.82 216.125L1048.42 215.203L1057.82 213.232L1067.22 211.261L1074.72 208.574L1082.22 205.886L1089.72 202.003L1097.22 198.12L1104.72 191.833L1112.22 185.546L1117.53 178.576L1122.83 171.606L1127.23 162.606L1131.63 153.606L1134.08 144.106L1136.52 134.606L1137.62 125.606L1138.71 116.606V106.106V95.606L1137.61 86.606L1136.51 77.606L1134.06 69.106L1131.61 60.606L1128.42 53.615L1125.22 46.624L1119.64 39.086L1114.05 31.547L1108.64 26.988L1103.22 22.428L1098.72 19.4L1094.22 16.372L1087.99 13.237L1081.77 10.102L1074.04 7.58002L1066.32 5.05804L1055.27 2.87799L1044.22 0.697998L962.051 0.348999L879.881 0L880.224 1.80304ZM1192.72 168.562V337.106L1273.97 337.105L1355.22 337.104L1365.94 336.088L1376.66 335.072L1385.44 333.543L1394.22 332.015L1404.72 328.508L1415.22 325.002L1422.54 321.055L1429.87 317.109L1435.54 312.732L1441.22 308.354L1446.27 302.98L1451.31 297.606L1454.39 293.106L1457.45 288.606L1460.45 282.606L1463.44 276.606L1465.55 270.106L1467.67 263.606L1469.23 254.606L1470.8 245.606L1470.86 232.606L1470.92 219.606L1468.88 211.009L1466.83 202.412L1464.34 196.788L1461.85 191.163L1458.65 186.384L1455.44 181.606L1450.83 176.784L1446.22 171.961L1441.26 168.284L1436.29 164.606L1427.44 160.024L1418.59 155.443L1425.22 151.571L1431.84 147.698L1439.19 140.344L1446.55 132.989L1451.14 123.798L1455.73 114.606L1457.46 108.106L1459.19 101.606L1459.19 85.106L1459.19 68.606L1456.91 60.663L1454.62 52.719L1450.59 44.966L1446.55 37.212L1440.51 30.623L1434.48 24.033L1428.35 19.687L1422.22 15.342L1416.13 12.291L1410.04 9.23999L1402.04 6.64905L1394.03 4.05701L1386.13 2.42303L1378.22 0.790039L1285.47 0.403992L1192.72 0.019043V168.562ZM136.379 10.176L125.538 12.084L114.993 15.613L104.449 19.141L94.334 24.239L84.22 29.336L76.22 34.551L68.22 39.765L60.548 45.954L52.875 52.144L45.048 59.963L37.22 67.782L30.867 76.694L24.514 85.606L19.698 95.176L14.882 104.746L12.267 111.176L9.651 117.606L7.20499 126.606L4.758 135.606L3.25601 143.606L1.754 151.606L0.877014 163.606L0 175.606L0.825989 186.909L1.651 198.212L2.73199 204.409L3.81201 210.606L6.86301 220.606L9.91299 230.606L15.707 242.606L21.501 254.606L27.431 263.606L33.36 272.606L41.222 282.106L49.083 291.606L72.089 314.856L95.094 338.106H96.848H98.602L99.146 337.225L99.69 336.345L93.776 323.888L87.862 311.431L84.265 301.097L80.668 290.762L78.272 281.184L75.876 271.606L74.33 261.606L72.784 251.606L72.359 239.606L71.934 227.606L72.809 217.108L73.685 206.609L75.765 196.108L77.846 185.606L80.241 177.058L82.637 168.51L87.041 157.553L91.444 146.596L94.636 140.272L97.828 133.948L104.182 123.245L110.535 112.541L117.733 103.229L124.93 93.916L135.041 83.418L145.152 72.921L152.602 66.928L160.052 60.934L168.897 54.987L177.741 49.04L184.665 45.565L191.588 42.091L200.404 38.748L209.22 35.405L216.603 33.615L223.986 31.825L232.603 32.443L241.22 33.061L249.073 35.124L256.927 37.188L264.573 41.033L272.22 44.878L278.355 49.491L284.491 54.103L289.982 60.855L295.472 67.606L298.549 73.106L301.625 78.606L304.14 85.293L306.656 91.981L308.322 101.754L309.987 111.527L309.403 119.805L308.819 128.084L307.152 134.845L305.485 141.606L302.126 148.946L298.767 156.287L294.358 162.446L289.948 168.606L283.555 174.727L277.161 180.849L271.376 184.549L265.591 188.25L258.905 191.09L252.22 193.93L245.72 195.691L239.22 197.452L226.72 197.48L214.22 197.507L207.72 195.736L201.22 193.965L192.893 190.413L184.566 186.86L183.393 188.041L182.22 189.221L207.72 214.462L233.22 239.704L239.72 243.92L246.22 248.137L254.196 251.221L262.171 254.305L268.696 255.688L275.22 257.071L285.342 257.089L295.464 257.106L305.052 254.674L314.64 252.242L323.488 247.672L332.336 243.102L338.945 237.65L345.554 232.199L350.645 225.907L355.736 219.616L360.273 210.611L364.811 201.606L366.752 192.106L368.694 182.606L368.707 174.921L368.72 167.237L367.283 160.421L365.847 153.606L362.7 144.606L359.553 135.606L354.144 125.314L348.734 115.023L343.261 106.814L337.788 98.606L332.219 91.606L326.649 84.606L315.435 73.285L304.22 61.964L294.72 54.734L285.22 47.503L276.848 42.191L268.477 36.879L255.348 30.571L242.22 24.263L232.22 20.729L222.22 17.195L210.686 14.224L199.152 11.252L188.558 9.67902L177.963 8.10602L162.592 8.18701L147.22 8.26801L136.379 10.176ZM372.185 9.16302L371.532 10.219L375.022 16.913L378.513 23.606L382.51 33.106L386.507 42.606L389.604 52.339L392.702 62.073L395.432 74.839L398.161 87.606L398.191 112.606L398.22 137.606L395.915 149.106L393.61 160.606L390.723 170.338L387.836 180.069L384.177 189.338L380.519 198.606L375.039 209.106L369.559 219.606L361.962 231.052L354.364 242.498L348.906 249.052L343.448 255.606L334.334 264.943L325.22 274.28L317.22 280.535L309.22 286.79L301.712 291.815L294.204 296.84L286.212 300.823L278.22 304.805L271.22 307.418L264.22 310.031L256.22 312.2L248.22 314.37L239.22 313.768L230.22 313.166L222.415 311.108L214.611 309.05L207.363 305.514L200.115 301.978L193.443 296.981L186.771 291.985L181.241 285.323L175.711 278.66L171.769 271.084L167.828 263.507L165.134 254.557L162.441 245.606L162.365 231.606L162.29 217.606L164.065 211.106L165.84 204.606L170.22 195.606L174.6 186.606L179.817 180.106L185.034 173.606L190.873 168.606L196.712 163.606L203.714 159.489L210.717 155.372L218.601 152.766L226.485 150.161L233.852 149.01L241.22 147.859L249.357 148.426L257.494 148.993L263.857 150.62L270.22 152.247L278.547 155.799L286.874 159.352L288.047 158.165L289.22 156.978L263.211 131.292L237.203 105.606L229.211 100.898L221.22 96.19L211.72 93.006L202.22 89.822L190.014 89.331L177.807 88.839L168.356 91.023L158.905 93.207L150.753 97.149L142.602 101.091L137.911 104.301L133.22 107.511L127.849 112.558L122.478 117.606L118.217 123.606L113.956 129.606L110.863 135.777L107.771 141.949L105.706 149.277L103.642 156.606L103.042 166.648L102.442 176.69L103.596 183.317L104.75 189.943L107.293 197.775L109.835 205.606L114.826 216.106L119.818 226.606L124.99 234.606L130.163 242.606L136.144 250.606L142.126 258.606L153.673 270.461L165.22 282.317L172.66 288.316L180.1 294.316L190.306 301.164L200.512 308.011L211.389 313.484L222.267 318.956L227.743 321.132L233.22 323.307L241.356 326.194L249.492 329.082L260.952 332.037L272.412 334.992L283.816 336.666L295.22 338.339L312.72 337.812L330.22 337.284L339.569 335.206L348.919 333.128L358.069 329.993L367.22 326.857L377.87 321.523L388.52 316.19L396.834 310.528L405.148 304.867L410.684 300.412L416.22 295.958L424.576 287.782L432.932 279.606L437.185 274.106L441.438 268.606L445.139 262.811L448.84 257.015L453.351 247.95L457.863 238.885L461.734 227.245L465.605 215.606L467.79 205.106L469.975 194.606L470.434 175.606L470.893 156.606L469.359 146.606L467.824 136.606L465.211 127.606L462.598 118.606L458.086 108.606L453.575 98.606L447.398 88.229L441.22 77.851L432.727 67.229L424.233 56.606L400.332 32.356L376.43 8.10602H374.634H372.838L372.185 9.16302ZM1032.22 60.575L1039.22 62.327L1045.99 65.854L1052.77 69.38L1057.59 74.653L1062.41 79.927L1064.58 85.767L1066.74 91.606L1067.62 98.714L1068.5 105.822L1067.67 113.714L1066.84 121.606L1065.27 126.755L1063.7 131.905L1059.77 137.755L1055.83 143.606L1052.15 146.498L1048.47 149.39L1042.84 152.177L1037.22 154.963L1029.51 156.534L1021.8 158.106H986.262H950.72V108.022V57.938L987.97 58.38L1025.22 58.822L1032.22 60.575ZM1362.05 60.419L1368.89 62.037L1374.55 64.624L1380.22 67.211L1384.05 70.908L1387.89 74.606L1389.97 78.606L1392.05 82.606L1392.51 90.259L1392.97 97.913L1391.73 103.259L1390.5 108.606L1388.16 112.69L1385.83 116.773L1381.65 120.55L1377.47 124.327L1372.34 126.587L1367.22 128.848L1362.22 130.124L1357.22 131.401L1308.97 131.822L1260.72 132.243V95.097V57.952L1307.97 58.376L1355.22 58.8L1362.05 60.419ZM1369.22 191.419L1375.22 193.167L1380.44 195.694L1385.66 198.221L1389.96 202.414L1394.27 206.606L1396.51 211.382L1398.76 216.158L1399.9 223.553L1401.05 230.948L1399.89 239.277L1398.73 247.606L1395.23 254.735L1391.73 261.864L1387.6 265.597L1383.47 269.33L1377.26 272.234L1371.05 275.139L1363.3 276.622L1355.54 278.106H1308.13H1260.72V233.563V189.021L1311.97 189.346L1363.22 189.671L1369.22 191.419Z" fill="white"/>
</svg>
